<?xml version="1.0" encoding="UTF-8"?><svg xmlns="http://www.w3.org/2000/svg" xmlns:xlink="http://www.w3.org/1999/xlink" width="900" zoomAndPan="magnify" viewBox="0 0 900 899.99999" height="899.99999" preserveAspectRatio="xMidYMid meet" version="1.0"><defs><clipPath id="clip-0"><path d="M 165.78125 103 L 733.980469 103 L 733.980469 880 L 165.78125 880 Z M 165.78125 103 " clip-rule="nonzero"/></clipPath></defs><g clip-path="url(#clip-0)"><path fill="rgb(94.119263%, 21.958923%, 28.62854%)" d="M 730.824219 422.816406 C 729.441406 476.378906 717.921875 648.792969 715.660156 681.738281 C 712.070312 735.078125 692.851562 788.648438 661.472656 828.726562 C 649.660156 844.125 635.824219 853.566406 618.285156 860.34375 C 614.984375 861.617188 611.507812 862.832031 607.921875 863.933594 C 607.921875 863.933594 603.757812 868.105469 587.71875 872.210938 C 563.867188 878.296875 513.734375 884.144531 412.019531 875.632812 C 242.160156 861.386719 229.078125 818.585938 225.777344 816.382812 C 222.480469 814.132812 197.296875 797.507812 188.550781 783.84375 C 175.472656 763.28125 169.738281 736.414062 167.019531 704.039062 C 164.816406 677.625 166.035156 651.917969 167.019531 625.851562 C 169.914062 541.882812 167.019531 291.878906 167.019531 291.878906 C 171.820312 241.664062 168 194.410156 207.539062 157.695312 C 235.503906 130.707031 275.101562 122.945312 308.855469 103.664062 L 618.109375 152.246094 C 658.984375 177.613281 719.535156 200.144531 726.601562 252.324219 L 729.441406 270.625 C 737.886719 318.515625 732.21875 374.917969 730.824219 422.816406 " fill-opacity="1" fill-rule="nonzero"/></g><path fill="rgb(98.039246%, 96.469116%, 95.289612%)" d="M 246.792969 795.222656 C 207.9375 770.6875 191.160156 727.011719 182.980469 683.613281 C 182.289062 679.945312 176.707031 681.507812 177.394531 685.148438 C 185.875 730.117188 203.75 774.890625 243.871094 800.222656 C 247.039062 802.222656 249.941406 797.207031 246.792969 795.222656 " fill-opacity="1" fill-rule="nonzero"/><path fill="rgb(98.039246%, 96.469116%, 95.289612%)" d="M 257.785156 810.898438 C 260.425781 811.90625 262.675781 813.667969 265.339844 814.675781 C 268.828125 816.011719 270.324219 810.410156 266.871094 809.097656 C 264.238281 808.089844 261.980469 806.332031 259.320312 805.320312 C 255.828125 803.984375 254.332031 809.585938 257.785156 810.898438 " fill-opacity="1" fill-rule="nonzero"/><path fill="rgb(98.039246%, 96.469116%, 95.289612%)" d="M 189.523438 424.328125 C 188.398438 380.410156 187.574219 336.476562 187.816406 292.542969 C 187.964844 265.164062 187.546875 237.023438 191.761719 209.878906 C 192.332031 206.195312 186.539062 206.070312 185.972656 209.710938 C 181.761719 236.867188 182.230469 264.976562 182.027344 292.375 C 181.699219 336.308594 182.609375 380.25 183.742188 424.160156 C 183.832031 427.875 189.621094 428.070312 189.523438 424.328125 " fill-opacity="1" fill-rule="nonzero"/><path fill="rgb(98.039246%, 96.469116%, 95.289612%)" d="M 210.539062 178.464844 C 220.296875 166.953125 231.167969 157.164062 244.984375 150.820312 C 248.375 149.261719 245.96875 143.996094 242.570312 145.554688 C 227.863281 152.308594 216.242188 162.808594 205.855469 175.058594 C 203.4375 177.917969 208.140625 181.289062 210.539062 178.464844 " fill-opacity="1" fill-rule="nonzero"/><path fill="rgb(98.039246%, 96.469116%, 95.289612%)" d="M 707.992188 232.671875 C 678.820312 265.507812 636.382812 283.914062 594.953125 295.941406 C 588.90625 297.699219 582.796875 299.390625 576.636719 301 C 573.792969 288.789062 561.046875 269.113281 555.210938 260.535156 C 581.015625 253.730469 605.664062 243.167969 627.953125 227.769531 C 653.386719 210.1875 677.105469 181.835938 677.953125 150.246094 C 678.128906 143.828125 677.359375 137.28125 675.46875 130.65625 C 670.710938 113.976562 656.652344 101.101562 644.683594 89.285156 C 637.433594 82.136719 629.660156 75.550781 621.4375 69.535156 C 610.941406 61.855469 599.722656 55.191406 588.125 49.324219 C 558.769531 34.484375 527.867188 23.300781 496.117188 14.832031 C 481.355469 10.894531 466.285156 7.839844 451.105469 6.0625 C 399.246094 -0.03125 346.890625 8.59375 298.015625 26.371094 C 279.421875 33.140625 265.914062 45.964844 254.988281 62.847656 C 221.457031 114.648438 269.03125 189.71875 274.695312 197.109375 C 296.15625 225.152344 331.371094 241.894531 363.648438 253.867188 C 397.683594 266.492188 434.65625 270.429688 470.765625 270.625 C 482.980469 270.695312 495.214844 270.207031 507.371094 269.003906 C 513.835938 268.359375 520.277344 267.511719 526.679688 266.492188 C 532.699219 277.117188 544.277344 298.046875 547.679688 307.824219 C 515.515625 314.542969 482.539062 318.363281 450.136719 316.746094 C 398.046875 314.160156 344.214844 298.460938 298.316406 273.640625 C 257.574219 251.601562 221.1875 225.222656 201.359375 181.976562 C 199.808594 178.589844 194.816406 181.535156 196.359375 184.898438 C 216.367188 228.550781 253.707031 256.933594 295.394531 278.640625 C 340.886719 302.320312 393.074219 319.707031 444.5625 322.265625 C 479.265625 323.984375 514.699219 320.566406 549.191406 313.53125 C 563.738281 376.164062 587.25 436.335938 596.863281 500.535156 C 610.355469 590.011719 615.332031 675.144531 580.539062 760.503906 C 567.109375 793.453125 551.070312 823.507812 530.75 852.644531 C 526.960938 858.105469 522.75 863.695312 518.4375 869.378906 C 483.777344 869.863281 443.207031 868.863281 403.847656 864.527344 C 385.886719 862.554688 368.171875 859.882812 351.394531 856.34375 C 245.925781 834.113281 225.792969 816.472656 225.792969 816.472656 C 227.402344 831.574219 236.042969 843.785156 247.554688 852.804688 C 256.554688 859.855469 267.304688 864.953125 277.835938 867.96875 C 309.511719 877.28125 372.550781 893.359375 431.15625 897.289062 C 458.183594 899.109375 484.761719 899.960938 511.777344 898.640625 C 532.113281 897.648438 553.496094 897.261719 573.402344 892.449219 C 591.703125 888.03125 606.882812 880.003906 607.945312 864.042969 C 607.886719 864.058594 607.824219 864.066406 607.769531 864.078125 C 607.867188 863.988281 607.921875 863.9375 607.921875 863.9375 C 611.507812 862.832031 614.984375 861.617188 618.285156 860.34375 C 642.65625 820.152344 652.09375 768.4375 656.027344 724.363281 C 663.207031 642.476562 638.894531 568.871094 614.292969 491.730469 C 596.464844 435.9375 583.476562 381.347656 578.679688 325.089844 C 578.097656 318.3125 577.644531 313.363281 577.308594 306.964844 C 585.210938 304.886719 593.039062 302.648438 600.769531 300.242188 C 641.691406 287.472656 683.078125 269.414062 712.089844 236.769531 C 714.5625 233.988281 710.480469 229.882812 707.992188 232.671875 " fill-opacity="1" fill-rule="nonzero"/><path fill="rgb(98.039246%, 96.469116%, 95.289612%)" d="M 357.46875 670.066406 C 365.96875 712.019531 431.023438 725.644531 444.878906 680.199219 C 447.332031 672.140625 434.761719 668.722656 432.316406 676.738281 C 422.058594 710.382812 375.808594 695.117188 370.03125 666.597656 C 368.359375 658.367188 355.8125 661.863281 357.46875 670.066406 " fill-opacity="1" fill-rule="nonzero"/><path fill="rgb(98.039246%, 96.469116%, 95.289612%)" d="M 442.648438 598.828125 C 457.398438 613 437.203125 624.222656 423.890625 624.734375 C 408.851562 625.3125 381.398438 621.390625 380.601562 602.171875 C 383.796875 569.476562 427.164062 583.949219 442.648438 598.828125 Z M 367.578125 602.171875 C 367.496094 603.019531 367.585938 603.753906 367.761719 604.429688 C 372.757812 647.617188 468.058594 652.226562 459.859375 603.285156 C 456.449219 582.933594 427.386719 573.28125 410.382812 570.449219 C 387.601562 566.652344 371.128906 576.820312 367.898438 599.859375 C 367.675781 600.542969 367.535156 601.296875 367.578125 602.171875 " fill-opacity="1" fill-rule="nonzero"/><path fill="rgb(98.039246%, 96.469116%, 95.289612%)" d="M 453.289062 515.507812 C 453.316406 531.441406 443.984375 527.957031 431.511719 527.265625 C 415.019531 526.347656 398.941406 522.515625 382.363281 523.699219 C 374.03125 524.285156 373.976562 537.320312 382.363281 536.726562 C 404.960938 535.117188 427.28125 542.609375 449.890625 540.890625 C 463.738281 539.832031 466.332031 527.167969 466.3125 515.507812 C 466.296875 507.109375 453.273438 507.109375 453.289062 515.507812 " fill-opacity="1" fill-rule="nonzero"/><path fill="rgb(98.039246%, 96.469116%, 95.289612%)" d="M 394.710938 432.425781 C 399.378906 430.621094 404.671875 429.972656 409.867188 429.550781 C 409.65625 430.390625 409.585938 431.308594 409.726562 432.300781 C 410.867188 440.203125 412.65625 448.035156 411.511719 455.910156 C 406.988281 454.917969 402.5 453.875 398.074219 452.730469 C 387.699219 450.050781 383.386719 436.804688 394.710938 432.425781 Z M 371.046875 440.265625 C 371.675781 455.636719 385.460938 462.933594 398.835938 466.386719 C 419.390625 471.695312 441.523438 474.890625 462.453125 478.542969 C 470.667969 479.96875 474.183594 467.414062 465.921875 465.972656 C 452.226562 463.589844 438.160156 461.289062 424.261719 458.574219 C 425.804688 448.628906 423.730469 438.855469 422.289062 428.839844 C 422.277344 428.753906 422.25 428.683594 422.234375 428.609375 C 434.585938 427.851562 447.039062 428.382812 459.320312 429.734375 C 467.660156 430.652344 467.578125 417.613281 459.320312 416.707031 C 442.464844 414.851562 369.722656 408.089844 371.046875 440.265625 " fill-opacity="1" fill-rule="nonzero"/><path fill="rgb(98.039246%, 96.469116%, 95.289612%)" d="M 271.234375 434.6875 C 271.578125 429.945312 273.765625 427.113281 278.667969 426.886719 C 278.671875 426.886719 278.671875 426.882812 278.679688 426.882812 C 281.910156 427.042969 288.117188 428.839844 287.425781 433.257812 C 286.914062 436.503906 282.921875 439.175781 280.148438 440.335938 C 275.605469 442.230469 270.863281 439.757812 271.234375 434.6875 Z M 279.671875 449.378906 C 286.886719 448.105469 296.171875 441.363281 296.136719 433.238281 C 296.109375 424.160156 288.007812 419.082031 279.804688 418.292969 C 279.457031 418.222656 279.078125 418.179688 278.667969 418.195312 C 278.246094 418.175781 277.871094 418.222656 277.511719 418.292969 C 267.996094 419.179688 263.699219 425.398438 262.550781 434.6875 C 261.371094 444.203125 270.824219 450.9375 279.671875 449.378906 " fill-opacity="1" fill-rule="nonzero"/><path fill="rgb(98.039246%, 96.469116%, 95.289612%)" d="M 409.351562 361.09375 C 409.222656 355.679688 413.214844 353.175781 418.1875 353.167969 C 429.226562 354.238281 430.414062 370.261719 418.550781 371.011719 C 412.808594 371.375 409.46875 366.148438 409.351562 361.09375 Z M 436 362.527344 C 436.167969 353.132812 428.042969 346.042969 419.410156 344.652344 C 419.03125 344.554688 418.632812 344.476562 418.1875 344.484375 C 417.753906 344.441406 417.367188 344.46875 417.003906 344.53125 C 407.40625 345.027344 401.238281 351.351562 400.667969 361.09375 C 400.066406 371.375 408.683594 379.339844 418.550781 379.695312 C 428.238281 380.046875 435.832031 371.800781 436 362.527344 " fill-opacity="1" fill-rule="nonzero"/><path fill="rgb(98.039246%, 96.469116%, 95.289612%)" d="M 484.609375 766.476562 C 484.480469 761.066406 488.472656 758.5625 493.445312 758.554688 C 504.484375 759.625 505.671875 775.644531 493.808594 776.394531 C 488.070312 776.757812 484.734375 771.535156 484.609375 766.476562 Z M 511.257812 767.910156 C 511.425781 758.519531 503.308594 751.425781 494.667969 750.035156 C 494.289062 749.9375 493.890625 749.859375 493.445312 749.867188 C 493.011719 749.824219 492.625 749.855469 492.261719 749.917969 C 482.664062 750.414062 476.5 756.734375 475.925781 766.476562 C 475.324219 776.757812 483.945312 784.722656 493.808594 785.082031 C 503.496094 785.429688 511.089844 777.191406 511.257812 767.910156 " fill-opacity="1" fill-rule="nonzero"/><path fill="rgb(94.898987%, 69.018555%, 67.449951%)" d="M 510.949219 150.296875 C 508.292969 164.773438 501.226562 175.835938 488.027344 181.976562 C 477.839844 186.835938 466.726562 191.234375 455.203125 189.960938 C 441.535156 188.984375 429.148438 183.886719 416.648438 179.074219 C 409.0625 176.121094 401.535156 172.820312 394.066406 169.632812 C 380.929688 164.078125 367.960938 158.113281 354.761719 152.609375 C 341.90625 147.335938 328.367188 142.476562 318.117188 132.804688 C 316.957031 131.761719 315.914062 130.601562 314.871094 129.328125 C 309.949219 123.132812 306.882812 115.203125 306.882812 107.320312 C 306.824219 102.054688 310.414062 94.640625 314.0625 90.992188 C 320.375 84.738281 330.792969 83.292969 339.242188 82.765625 C 348.21875 82.304688 357.191406 83.402344 366.167969 83.402344 C 378.554688 83.402344 391.0625 83.925781 403.449219 85.144531 C 432.335938 88.039062 460.125 95.398438 485.65625 109.578125 C 502.09375 118.734375 514.664062 130.140625 510.949219 150.296875 Z M 635.710938 144.792969 C 630.617188 128.460938 620.375 114.566406 608.503906 102.460938 C 591.542969 85.199219 568.324219 75.242188 546.148438 66.492188 C 512 53.058594 476.042969 45.066406 439.636719 41.246094 C 435.691406 40.839844 431.644531 40.492188 427.644531 40.203125 C 395.226562 37.714844 362 39.042969 330.792969 48.539062 C 319.792969 51.839844 309.140625 56.589844 299.589844 63.078125 C 289.691406 69.847656 283.671875 77.84375 277.476562 87.921875 C 274.289062 93.074219 271.515625 98.460938 269.605469 104.136719 C 262.710938 124.40625 268.269531 146.53125 277.765625 165.003906 C 280.890625 171.144531 284.769531 177.164062 288.992188 182.613281 C 304.394531 202.761719 325.8125 217.125 348.21875 228.300781 C 365.125 236.757812 385.441406 239.308594 403.855469 242.785156 C 428.804688 247.46875 453.929688 249.265625 479.226562 247.183594 C 489.363281 246.316406 499.492188 245.210938 509.566406 243.882812 C 543.082031 239.363281 577.589844 233.628906 607.574219 217.007812 C 623.261719 208.320312 635.710938 195.003906 638.488281 176.757812 C 640.054688 166.625 638.78125 154.519531 635.710938 144.792969 " fill-opacity="1" fill-rule="nonzero"/><path fill="rgb(94.898987%, 69.018555%, 67.449951%)" d="M 463.570312 112.957031 C 458.148438 110.539062 452.5 108.789062 447.253906 107.851562 C 439.65625 106.410156 431.414062 106.675781 423.730469 107.308594 C 411.144531 108.25 402.8125 113.105469 397.296875 124.351562 C 389.851562 139.671875 397.863281 153.875 410.753906 162.820312 C 426.023438 173.640625 445.074219 177.605469 463.382812 174.183594 C 475.511719 171.667969 488.109375 162.820312 490.003906 149.769531 C 492.535156 132.222656 478.875 119.726562 463.570312 112.957031 " fill-opacity="1" fill-rule="nonzero"/><path fill="rgb(94.898987%, 69.018555%, 67.449951%)" d="M 367.261719 128.183594 C 361.046875 132.777344 355.226562 133.503906 348.246094 130.15625 C 339.808594 126.097656 334.238281 115.046875 343.144531 108.300781 C 349.242188 103.691406 356.890625 102.964844 364.003906 105.117188 C 374.476562 109.878906 377.601562 120.53125 367.261719 128.183594 Z M 366.402344 99.851562 C 366.328125 99.816406 366.25 99.800781 366.167969 99.78125 C 366.011719 99.703125 365.859375 99.628906 365.675781 99.570312 C 355.707031 96.425781 339.902344 98.632812 334.390625 109.007812 C 328.652344 119.8125 337.230469 131.273438 347.011719 135.972656 C 357.867188 141.191406 369.207031 136.476562 376.40625 127.292969 C 384.679688 116.769531 376.839844 104.347656 366.402344 99.851562 " fill-opacity="1" fill-rule="nonzero"/><path fill="rgb(94.898987%, 69.018555%, 67.449951%)" d="M 360.449219 109.878906 C 359.433594 109.53125 358.371094 109.320312 357.324219 109.265625 C 354.441406 109.117188 349.269531 110.277344 347.199219 112.488281 C 341.355469 118.742188 351.015625 126.585938 357.203125 125.945312 C 361.3125 125.511719 365.3125 122.089844 366.0625 118.019531 C 366.796875 113.992188 363.9375 111.089844 360.449219 109.878906 " fill-opacity="1" fill-rule="nonzero"/></svg>