<?xml version="1.0" encoding="UTF-8"?><svg xmlns="http://www.w3.org/2000/svg" xmlns:xlink="http://www.w3.org/1999/xlink" width="900" zoomAndPan="magnify" viewBox="0 0 900 899.99999" height="899.99999" preserveAspectRatio="xMidYMid meet" version="1.0"><path fill="rgb(100%, 34.118652%, 34.118652%)" d="M 149.320312 895.335938 C 129.695312 892.519531 112.617188 888.5625 111.371094 886.542969 C 110.125 884.523438 104.351562 875.277344 98.542969 865.996094 C 82.21875 839.914062 70.824219 811.742188 52.484375 752.105469 C 19.792969 645.800781 13.433594 618.15625 17.808594 601.417969 C 24.5625 575.574219 83.140625 539.050781 119.613281 537.941406 C 149.042969 537.042969 152.46875 539.578125 169.589844 574.941406 C 179.699219 595.824219 194.519531 629.042969 202.527344 648.761719 C 210.53125 668.480469 222.246094 684.617188 228.5625 684.617188 C 234.878906 684.617188 258.667969 655.195312 281.425781 619.234375 C 304.1875 583.277344 326.394531 549.816406 330.773438 544.886719 C 335.152344 539.953125 343.621094 526.667969 349.59375 515.359375 C 375.195312 466.871094 582.605469 182.269531 644.324219 110.941406 C 658.375 94.703125 669.878906 78.605469 669.890625 75.175781 C 669.902344 71.742188 689.835938 56.023438 714.183594 40.242188 C 747.457031 18.679688 771.046875 10.355469 809.113281 6.75 C 879.503906 0.0898438 886.140625 6.480469 856.496094 52.375 C 843.183594 72.988281 825.09375 97.445312 816.296875 106.722656 C 807.5 116.003906 781.398438 148.273438 758.296875 178.433594 C 735.195312 208.597656 712.136719 237.070312 707.058594 241.707031 C 701.980469 246.347656 688.878906 263.429688 677.949219 279.671875 C 667.015625 295.910156 655.992188 311.097656 653.449219 313.417969 C 631.398438 333.535156 394.789062 663.027344 374.769531 701.492188 C 368.730469 713.089844 361.515625 724.480469 358.730469 726.800781 C 355.945312 729.121094 331.6875 764.109375 304.824219 804.558594 C 277.960938 845.003906 251.898438 880.621094 246.90625 883.710938 C 228.605469 895.023438 184.089844 900.332031 149.320312 895.339844 Z M 149.320312 895.335938 " fill-opacity="1" fill-rule="nonzero"/></svg>